# xmcd CD database file
#
# Track frame offsets:
#	58916
#	73251
#	88813
#	112771
#	129361
#	153683
#	174623
#	189936
#	210368
#	229186
#	246861
#
# Disc length: 3512 seconds
#
# Revision: 2
# Processed by: cddbd v1.5.2PL0 Copyright (c) Steve Scherf et al.
# Submitted via: CDex 1.70beta2
#
DISCID=a30aa70b
DTITLE=Kenny Marks - World Gone Mad
DYEAR=1995
DGENRE=Christian Rock
TTITLE0=Take Me Back
TTITLE1=Before My Last Goodbye
TTITLE2=In My Mother's Eyes
TTITLE3=What Would You Write If You Wrote About Me
TTITLE4=World Gone Mad
TTITLE5=The Party's Over
TTITLE6=Take My Heart
TTITLE7=Why
TTITLE8=Next Time Love Comes To Town
TTITLE9=When I Look Into Your Eyes
TTITLE10=Always Been You
EXTD=YEAR: 1995
EXTT0=
EXTT1=
EXTT2=
EXTT3=
EXTT4=
EXTT5=
EXTT6=
EXTT7=
EXTT8=
EXTT9=
EXTT10=
PLAYORDER=
